<svg width="44" height="44" viewBox="0 0 44 44" fill="none" xmlns="http://www.w3.org/2000/svg">
<path d="M35.4007 43.5479H8.58239C4.17524 43.5479 0.603516 39.9762 0.603516 35.569V8.7508C0.603516 4.34365 4.17524 0.771912 8.58239 0.771912H35.4007C39.8078 0.771912 43.3795 4.34365 43.3795 8.7508V35.569C43.3795 39.9762 39.8078 43.5479 35.4007 43.5479Z" fill="#292F36"/>
<path d="M29.6991 22.5535C30.4619 23.51 30.8494 24.6238 30.8494 25.883C30.8494 27.7355 30.2319 29.1884 28.9969 30.2175C27.7619 31.2467 25.9942 31.7794 23.6938 31.7794H13.6445V10.1674H23.4516C25.6552 10.1674 27.3503 10.6517 28.5489 11.6082C29.7476 12.5647 30.353 13.9329 30.353 15.7006C30.353 17.0082 30.0019 18.0858 29.3117 18.9575C28.6216 19.8293 27.7135 20.3862 26.5875 20.6526C27.9072 20.9674 28.9364 21.597 29.6991 22.5535ZM18.8629 19.0059H22.2893C24.1055 19.0059 25.0135 18.2311 25.0135 16.6813C25.0135 15.1315 24.0812 14.3566 22.2288 14.3566H18.8629V19.0059ZM25.4978 25.1566C25.4978 24.3817 25.2436 23.7763 24.7351 23.3405C24.2265 22.9046 23.5001 22.6866 22.5678 22.6866H18.875V27.5418H22.6041C24.5292 27.5297 25.4978 26.7427 25.4978 25.1566Z" fill="white"/>
</svg>
